<?xml version="1.0" encoding="utf-8"?>
<!-- Generator: Adobe Illustrator 27.0.0, SVG Export Plug-In . SVG Version: 6.00 Build 0)  -->
<svg version="1.1" id="Layer_1" xmlns="http://www.w3.org/2000/svg" xmlns:xlink="http://www.w3.org/1999/xlink" x="0px" y="0px"
	 viewBox="0 0 654 444" style="enable-background:new 0 0 654 444;" xml:space="preserve">
<style type="text/css">
	.st0{opacity:0.5;fill:#096D48;enable-background:new    ;}
	.st1{fill:#F3F3F3;}
	.st2{fill:#84D5CA;}
	.st3{fill:#A6EBB3;}
	.st4{fill:#FC8100;}
	.st5{fill:none;stroke:#FC8100;stroke-width:2;stroke-linecap:round;stroke-linejoin:bevel;stroke-dasharray:4,4;}
	.st6{fill:none;stroke:#FFFFFF;stroke-width:2;stroke-linecap:round;stroke-linejoin:bevel;stroke-dasharray:4,4;}
	.st7{fill:#C0AB67;}
	.st8{fill:#33A387;}
	.st9{fill:#29856E;}
	.st10{fill:#0B8457;}
</style>
<path class="st0" d="M134.3,345.3c-18.4-4.2-67.6-18.4-69.8-40.9c-12.2-5.6-36.9-19.5-38.1-29.6c-1.4-12.7-2.8-31,7-42.3
	c9.9-11.3,56.4,6.3,57.8-3.5c1.4-9.9,51.5-1.4,52.1-12c11.4-3.4,19.8-22.5,28.2-26.7c8.4-4.2,30.9-10.2,35.8-20
	c4.9-9.9,12.2-20.9,12.2-25.8c0-5,1.3-21.8,9.1-26.7c7.8-5,26.9,2.8,31.1-0.1c4.2-2.8,8.4-15.5,11.9-19.7c3.5-4.2,18.4-5.6,22.6-7
	s-0.7-34.6,11.3-45.1c12-10.5,5.6-7.8,14.1-21.2c8.5-13.4,28.9-4.2,44.4-3.5c15.5,0.7,16.2,43,19,56.4c2.8,13.4,11.3,1.4,15.5-13.4
	s12.7-31.7,28.9-32.4c16.2-0.7,33.1,2.8,43,14.1c9.9,11.3,1.4,47.2,16.2,52.1c14.8,5,19,26.1,30.4,29.6
	c11.3,3.5,20.4,23.9,24.7,38.1c4.2,14.1,29.6,2.8,42.3,6.3c12.7,3.5,28,50.4,24.5,63.1c-3.5,12.7-23.8,22.2-42.1,31.4
	c-18.3,9.2-19.8,31.7-28.9,46.5c-9.1,14.8-35.5,28.9-44.7,38c6.8,10.5,11.6,31.7,3.1,40.9s-28.2,3.5-35.3,4.9
	c-7,1.4-23.1,19.8-44.9,19.1c-21.9-0.7-52.4-43.7-67.2-46.6c-14.8-2.8-81.8,4.2-99.4-6.3C231.6,352.4,152.7,349.6,134.3,345.3z"/>
<path class="st1" d="M141.6,332.3c-18-4.1-66.3-18-68.4-40.1c-12-5.5-36.2-19.1-37.3-29c-1.4-12.4-2.8-30.4,6.9-41.4
	c9.7-11,55.3,6.2,56.7-3.5c1.4-9.7,50.4-1.4,51.1-11.8c0.7-10.4,19.4-22.1,27.7-26.2c8.3-4.1,17.3-19.4,22.1-29
	c4.8-9.7,24.9-11,24.9-15.9c0-4.9,0.2-17.3,7.8-22.1c7.6-4.9,27.5-1.4,31.6-4.1c4.1-2.8,8.3-15.2,11.7-19.3c3.4-4.1,18-5.5,22.1-6.9
	c4.1-1.4-0.7-33.9,11-44.2c11.8-10.3,5.5-7.6,13.9-20.8c8.3-13.1,28.3-4.1,43.5-3.5c15.2,0.7,15.9,42.2,18.7,55.3
	c2.8,13.1,11.1,1.4,15.2-13.1c4.1-14.5,12.4-31.1,28.3-31.8c15.9-0.7,32.5,2.8,42.1,13.9c9.7,11.1,1.4,46.2,15.9,51.1
	c14.5,4.9,18.7,25.6,29.7,29c11.1,3.5,20,23.5,24.2,37.3c4.1,13.9,24.2,11,36.6,14.5c12.4,3.4,28.3,44.9,24.9,57.3
	c-3.4,12.4-19.4,18-37.3,27c-17.9,9-19.4,31.1-28.3,45.6c-8.9,14.5-40.8,31.8-49.8,40.7s12.5,27.6,4.1,36.6
	c-8.3,9-22.8,3.4-29.7,4.8s-22.8,21.5-44.2,20.8c-21.4-0.7-51.1-44.9-65.6-47.7c-14.5-2.8-80.1,4.1-97.4-6.2
	C236.9,339.2,159.5,336.4,141.6,332.3z"/>
<path class="st2" d="M147.4,254.7c-2.8,5.9-4.1,16.2-5.6,16.9c-1.5,0.7-26.5,0-32.7,4.5c-6.2,4.5-14.1,18.3-11.8,22.4
	c2.3,4.1,30,9.9,36.3,12.2c6.3,2.3,19.2,3.7,35.6,2.4c16.4-1.3,37.8,2,44.5,4.6c6.7,2.6,33.4,15.8,42.7,16
	c9.3,0.2,22.1-10.7,34.3-10.3c12.1,0.3,24.8,4.9,34.2,7.9c9.4,3,7.8,6.5,20.2,11.2c12.4,4.7,20.2-3.4,26.9,0
	c6.7,3.4,1.1,8.4,11,13.5c9.9,5.1,17.4,13.1,22.8,19.1c5.4,6,14.4,9.3,22.1,8.8c7.7-0.6,16.3-4.5,17.6-8.8c1.3-4.3,3.4-9.8,12.1-9.8
	c8.8,0,10.8,5.3,14.1,0c3.4-5.3,2.3-29.3,3.3-32.8c1-3.5,6.3-4.7,8.9-9.1c2.6-4.4,0.9-8.7,3.5-12.3c2.5-3.5,24.7-12.4,29.5-23.5
	c4.7-11,21-31.3,29.7-38.7c8.7-7.4,36.6-15.1,39.6-19.9c2.9-4.8,1.5-17.4,0-29.9s-11.9-14.6-16.2-14.6c-4.3,0-8.7,7.8-10.2,12.3
	c-1.5,4.5-6.3,2.6-11,7.9c-4.7,5.3-13.2,4.6-17.4,2.1c-4.1-2.5-1.6-8.6,0.9-12.7c2.5-4.1,8.4-16.3,6-22.8
	c-2.4-6.5-15.9-3.4-22.5-3.1c-6.6,0.3-1.8-2.9-4.7-6.1c1.1-3.5,2.2-6.7,0.8-10.8c-1.4-4.1-6.5-5.7-7.3-6.1c-0.8-0.3-1.9-3.9-1.4-5.6
	c0.4-1.8,7.3-3.3,2.3-13c-5-9.7-17.9-6-18.1-7.5c-0.2-1.4-2.8-3.1-9.3-2.6c-6.6,0.5-5,6.2-6.3,10c-1.3,3.9-4.4,4.5-6.8,5.2
	c-2.5,0.7-6.1-5.6-8.1-8.2c0-2.3,1.5-6.8,0-12.5c-1.5-5.7-5-0.5-6.6-3.9c-1.7-3.4,0.2-7.1,1.7-9.5c1.5-2.4,10.3-3.5,10.2-8.9
	c-0.2-5.4-5.2-14.5-8.4-20.2c-3.2-5.7-11.8-16.7-11.8-16.7s-4.2-11.9-4.7-15.9s-2.7-4.4-5.8-3.9c-3.1,0.5-8.8,11.8-9.8,16.2
	c-1,4.4-7.7,28-12.4,30.4c-4.7,2.3-8.7,10.6-12.3,11.3c-3.6,0.7-9.5-8-14.7-11.3c-5.2-3.3-22.7-8.8-22.1-11.1
	c0.4-1.9,1.1-9.7,1.4-13.3c-3.4-5.2-6-6.6-11.7-5.9c-5.7,0.7-8.9,6.3-10.4,8.7c-1,0.8-3.6,1.9-5.4,0c-2.3-2.4-3.3-3.9-11.6-4.7
	c-6.6-0.7-5.8,4.5-4.5,7.1c-2.6,10.8,6.8,14.4,9.1,19s-0.7,17.5-1.8,24.6c-6.3,1-12.6,14.2-4.1,16.2c8.4,2,13.7,12.7,15.6,16.3
	l0.1,0.1c1.8,3.5,0.6,20.4-1.5,25.7c-2,5.2-13.9,4.4-15.2,4.2c-1.3-0.2-2.6-3.1-4.6-4.6c-2-1.5-4.4,0-7-0.4
	c-8-5.8-15.2-3.4-17.6-4.5c-2.4-1-1.4-4.4-6.3-5.1c-4.9-0.7-5.2,3.3-9.1,3.6c-3.9,0.3-9.3-2.8-12.4,0.5c-3.1,3.3-2.4,9.3-3.1,14
	c-0.8,4.7-4.7,6-5.2,9.3c-0.4,3.4,8.9,8.4,11.3,12.1c1.9,3-0.8,5.6-2.3,6.6c-21.6-5-23.7,0.3-25.4,4.7l0,0.1
	c-1.7,4.4,7.8,13.4,3.7,16.3s-10-2.1-11.3-1.5c-1.3,0.6,1,2.3-1.3,4.1c-2.3,1.8-6.8,1.1-9,0.5c-2.2-0.6-15.2-12.5-18.8-12.9
	c-3.5-0.4-6.2,3.6-9.2,7c-2.9,3.4-3.8,10.7-3.7,12.6c0.1,1.9-7,4.2-8.6,4.8c-1.6,0.6-16.5,3.9-19.2,4.5
	C150.2,237.5,151.4,246.2,147.4,254.7z"/>
<path class="st3" d="M280.5,209.1c-16.5,0.2-22.7,24.9-22.7,25.4c0,0.5-0.3,0.4-0.7,0.5c-6.1,0-18.8,8-20.6,13
	c-1.8,5-2.4,6.5-5.5,7.9c-6.8,0.8-14.5-1.3-18-6.7c-1.9-2.9-10.4-8.3-19.2-8c-8.7,0.3-14.2,6.6-16.6,9.3c0,0-7,15.6-8.7,18.1
	c-1.7,2.5-7.8,10.9-10.3,13.5c-2.5,2.6-5.5,4.3-10.1,5.3c-4.6,1-9.8,0.7-16.7,0.8c-6.9,0.1-16.8,2.8-16.1,5c0.7,2.2,17.6,5.5,25,5.5
	c7.4,0.1,18.6,2.9,32.9,5.4c0,0,17.2,3.4,23.2,4.4c6,1,19.7,3.5,31,4.4c8.1,0.6,13.2,8.2,19.6,8.9c8.1,1,22.9-3.5,33.5-5.4
	c10.6-2,22.4,4,28.6,5.4c5.2,1.2,40.5,16.4,43.6,14.9c3-1.5,13.1-6.6,15.9-11.2c3.4-5.7-3.4-16.1-3.4-18.5c0-2.4,7.9-5,11.2-5.8
	c2.6-0.7,12.4,14.5,16.2,17.5c3.8,3,27.8,2.3,27.8-4.5c0-6.8,0.6-15.4,3.3-17.1c2.2-3.8,4.1-8.2,2.7-12.4c-1.4-4.3-8.4-7.5-10-7
	c-1.6,0.4-4.2,12.3-11.5,9.5c-7.2-2.7,1.8-15.9,1.2-21c-0.4-4.1-3.1-8.1-3-9.1c0.1-1,12.9-10.5,11.4-14.5c-1.5-4-10.2-1.5-13.4-1.5
	c-6.4-13.5-7-16.4-37.3-20.6c-30.2-4.2-33.5,15.2-47.3,24.6c-13.8,9.4-16-11.3-16.2-12.8S296.9,209,280.5,209.1z"/>
<path class="st3" d="M379.8,124.6c1.7-7.7,14.3-8.9,16.8-6.8c2.5,2.2-0.7,15.7-2.2,24.3c-1.5,8.6,9.5,9.8,17.6,15.9
	c8.1,6.1,12.1,19.8,14.4,26.1c1.8,5.1,2.7,20.7,2.9,27.9c-3.4,3.5-12.4,10.9-21.1,12c-10.9,1.4-15.1-0.8-16.8-3.2
	c-1.8-2.4,2.4-6.5,2.8-10.1c0.3-3.6-4.7-14.2-2.8-17.2c1.9-3,1.5-21.1,0-29.2c-1.5-8.1-10-7.8-12.6-10.3c-2.6-2.5,2.3-10.1,2.6-16.4
	C381.7,131.3,377.7,134.2,379.8,124.6z"/>
<path class="st3" d="M413.2,95.9c-2.4,1.1-6.9,8.1-8.8,11.4c-1.6,1.5-4.2,5.7-2,10.6c2.8,6.1,3,16.3,0,24c-3,7.7,10,11,16.6,17.4
	c7.2,7,7.1,12.4,10.2,17.3c3.1,4.9,5,30.4,4.5,34.7c-0.6,4.3,27.3,43.2,28.8,42.3c1.5-0.9,7.8-29.4,7.8-33.8c0-3.5-8-22.1-8.6-24.4
	c-0.6-2.3,1.3-14.3-0.6-18.8c-2.4-5.7-17.2-7.9-23.7-15.2c-6.5-7.3-5.3-20.3-4.9-23c0.4-2.6,3-14.3,2.4-19.3s-7-9.7-9.5-11.8
	c-2.5-2.1-1.1-9.7-2.4-11.4C421.9,94.2,416.2,94.5,413.2,95.9z"/>
<path class="st3" d="M497.5,142.4c-0.9-2.8-6.7-16.2-7.8-17.2c-1.1-1-3.8,3.6-5.2,5.4c-1.4,1.8-7,12.7-8.7,22.1
	c-1.7,9.3,1.7,16.3,1.8,25.7c0.1,9.4-10.3,19.6-11.4,21.8c-0.6,1.2,2.5,6.1,3.4,8.6c0.9,2.5,1.1,3.8,2.3,6.9
	c0.3,0.4,0.8,2.6,1.5,2.7c5.4-4.1,10.1-7.9,13.3-13.8c4.2-7.8,13.8-26,16.5-33.1c1.7-4.5,1.8-8.6,1.6-10.2
	C504.2,160.2,498.4,145.2,497.5,142.4z"/>
<path class="st4" d="M300.1,137.2l-0.9,0.5l0.1,0.2L300.1,137.2z M306.5,150.3l-1,0.2L306.5,150.3z M312.3,181.7l1-0.2L312.3,181.7z
	 M331,167.4l-0.1-1L331,167.4z M337.4,181.7l-1-0.3L337.4,181.7z M339.7,216.6l-1-0.2L339.7,216.6z M367,224.2l-0.1-1L367,224.2z
	 M396.9,224.2l0.2-1L396.9,224.2z M431.5,214.7l0.9,0.5L431.5,214.7z M423.1,167.4l0.9-0.5L423.1,167.4z M401.7,146.4l0.9-0.5
	L401.7,146.4z M409.8,96.6l0.6,0.8L409.8,96.6z M428.7,105.6l1-0.2L428.7,105.6z M438.3,119.6l-1,0.2L438.3,119.6z M433.5,147.8
	l1-0.2L433.5,147.8z M463.9,178l-1,0L463.9,178z M467,210.1l-0.9,0.4L467,210.1z M469.2,239.6l1,0.2L469.2,239.6z M460.8,256.8
	l-0.9,0.4L460.8,256.8z M476,281.9l0.8-0.5L476,281.9z M281.8,113.5c-0.6,0-1,0.5-0.9,1.1c0,0.6,0.5,1,1.1,0.9L281.8,113.5z
	 M283.2,115.9c0.5,0.2,1.1,0,1.3-0.4c0.2-0.5,0-1.1-0.4-1.3L283.2,115.9z M287.3,116.5c-0.4-0.4-1-0.4-1.4,0c-0.4,0.4-0.4,1,0,1.4
	L287.3,116.5z M288.3,120.6c0.4,0.4,1,0.5,1.4,0.1c0.4-0.4,0.5-1,0.1-1.4L288.3,120.6z M292.1,122.4c-0.3-0.4-1-0.5-1.4-0.2
	c-0.4,0.3-0.5,1-0.2,1.4L292.1,122.4z M292.6,126.6c0.3,0.5,0.9,0.6,1.4,0.3c0.5-0.3,0.6-0.9,0.3-1.4L292.6,126.6z M296.3,128.6
	c-0.3-0.5-0.9-0.6-1.4-0.3c-0.5,0.3-0.6,0.9-0.3,1.4L296.3,128.6z M296.5,132.8c0.3,0.5,0.9,0.6,1.4,0.4c0.5-0.3,0.6-0.9,0.4-1.4
	L296.5,132.8z M300.1,135.1c-0.3-0.5-0.9-0.7-1.4-0.4c-0.5,0.3-0.7,0.9-0.4,1.4L300.1,135.1z M300.5,139.3c0.3,0.4,1,0.5,1.4,0.2
	c0.4-0.3,0.5-1,0.2-1.4L300.5,139.3z M304.3,141c-0.3-0.5-0.9-0.6-1.4-0.2c-0.5,0.3-0.6,0.9-0.2,1.4L304.3,141z M304.3,145.2
	c0.2,0.5,0.8,0.8,1.3,0.6c0.5-0.2,0.8-0.8,0.6-1.3L304.3,145.2z M307.1,148.3c-0.1-0.5-0.6-0.9-1.2-0.8c-0.5,0.1-0.9,0.6-0.8,1.2
	L307.1,148.3z M305.9,152.4c0.1,0.5,0.6,0.9,1.2,0.8c0.5-0.1,0.9-0.6,0.8-1.2L305.9,152.4z M308.5,156c-0.1-0.5-0.6-0.9-1.2-0.8
	c-0.5,0.1-0.9,0.6-0.8,1.2L308.5,156z M307.2,160.3c0.1,0.5,0.6,0.9,1.2,0.8c0.5-0.1,0.9-0.6,0.8-1.2L307.2,160.3z M309.9,163.9
	c-0.1-0.5-0.6-0.9-1.2-0.8c-0.5,0.1-0.9,0.6-0.8,1.2L309.9,163.9z M308.6,168.2c0.1,0.5,0.6,0.9,1.2,0.8c0.5-0.1,0.9-0.6,0.8-1.2
	L308.6,168.2z M311.3,171.8c-0.1-0.5-0.6-0.9-1.2-0.8c-0.5,0.1-0.9,0.6-0.8,1.2L311.3,171.8z M310.1,176.1c0.1,0.5,0.6,0.9,1.2,0.8
	c0.5-0.1,0.9-0.6,0.8-1.2L310.1,176.1z M312.8,179.6c-0.1-0.5-0.6-0.9-1.2-0.8c-0.5,0.1-0.9,0.6-0.8,1.2L312.8,179.6z M311.9,183.8
	c0.2,0.5,0.8,0.7,1.3,0.5c0.5-0.2,0.7-0.8,0.5-1.3L311.9,183.8z M315.5,185.4c-0.5-0.3-1.1-0.2-1.4,0.3c-0.3,0.5-0.2,1.1,0.3,1.4
	L315.5,185.4z M318.9,187.1c0.5-0.3,0.6-0.9,0.3-1.4c-0.3-0.5-0.9-0.6-1.4-0.3L318.9,187.1z M319.7,183c-0.2,0.5,0,1.1,0.5,1.3
	c0.5,0.2,1.1,0,1.3-0.5L319.7,183z M322.8,179.8c0.2-0.5-0.2-1.1-0.7-1.2c-0.5-0.2-1.1,0.2-1.2,0.7L322.8,179.8z M322.3,174.7
	c-0.2,0.5,0.1,1.1,0.6,1.3c0.5,0.2,1.1-0.1,1.3-0.6L322.3,174.7z M326,171.4c0.3-0.5,0.2-1.1-0.3-1.4c-0.5-0.3-1.1-0.2-1.4,0.3
	L326,171.4z M328.3,166.9c-0.5,0.2-0.8,0.8-0.6,1.3c0.2,0.5,0.8,0.8,1.3,0.6L328.3,166.9z M332.9,168.6c0.5,0.2,1.1-0.1,1.3-0.6
	c0.2-0.5-0.1-1.1-0.6-1.3L332.9,168.6z M337.4,170.2c-0.3-0.5-0.9-0.7-1.4-0.4c-0.5,0.3-0.7,0.9-0.4,1.4L337.4,170.2z M336.9,175.1
	c0.1,0.5,0.6,0.9,1.1,0.9c0.5-0.1,0.9-0.6,0.9-1.1L336.9,175.1z M338.8,179.7c0.1-0.5-0.3-1.1-0.8-1.1c-0.5-0.1-1.1,0.3-1.1,0.8
	L338.8,179.7z M335.3,183.9c-0.3,0.5-0.2,1.1,0.3,1.4c0.5,0.3,1.1,0.2,1.4-0.3L335.3,183.9z M333.4,189.4c0.2-0.5,0-1.1-0.5-1.3
	c-0.5-0.2-1.1,0-1.3,0.5L333.4,189.4z M331.6,194.4c0.2,0.5,0.7,0.8,1.2,0.7c0.5-0.2,0.8-0.7,0.7-1.2L331.6,194.4z M335,197.7
	c-0.2-0.5-0.8-0.7-1.3-0.5c-0.5,0.2-0.7,0.8-0.5,1.3L335,197.7z M335,202.5c0.2,0.5,0.8,0.7,1.3,0.5c0.5-0.2,0.7-0.8,0.5-1.3
	L335,202.5z M338.6,205.7c-0.2-0.5-0.8-0.8-1.3-0.6s-0.8,0.8-0.6,1.3L338.6,205.7z M338.1,210.4c0.1,0.5,0.7,0.8,1.2,0.7
	c0.5-0.1,0.8-0.7,0.7-1.2L338.1,210.4z M340.8,214.4c0-0.6-0.5-1-1-1c-0.6,0-1,0.5-1,1L340.8,214.4z M338.9,218.8
	c0.1,0.5,0.7,0.8,1.2,0.7c0.5-0.1,0.8-0.7,0.7-1.2L338.9,218.8z M342.8,220.6c-0.5-0.3-1.1-0.2-1.4,0.3c-0.3,0.5-0.2,1.1,0.3,1.4
	L342.8,220.6z M345.5,223.9c0.5,0.2,1.1-0.1,1.2-0.7c0.2-0.5-0.1-1.1-0.7-1.2L345.5,223.9z M349.7,222.8c-0.5-0.1-1.1,0.3-1.1,0.8
	c-0.1,0.5,0.3,1.1,0.8,1.1L349.7,222.8z M353.3,225.3c0.6,0,1-0.4,1.1-0.9c0-0.6-0.4-1-0.9-1.1L353.3,225.3z M357.3,223.5
	c-0.6,0-1,0.4-1,1c0,0.6,0.4,1,1,1L357.3,223.5z M361.2,225.5c0.6,0,1-0.5,1-1c0-0.6-0.5-1-1-1L361.2,225.5z M365,223.3
	c-0.6,0-1,0.5-0.9,1c0,0.6,0.5,1,1,0.9L365,223.3z M369,225.1c0.5,0,1-0.5,0.9-1.1s-0.5-1-1.1-0.9L369,225.1z M372.5,222.7
	c-0.5,0.1-0.9,0.6-0.9,1.1s0.6,0.9,1.1,0.9L372.5,222.7z M376.5,224.2c0.5-0.1,0.9-0.6,0.9-1.1c-0.1-0.5-0.6-0.9-1.1-0.9
	L376.5,224.2z M380,221.9c-0.6,0-1,0.5-0.9,1.1c0,0.6,0.5,1,1.1,0.9L380,221.9z M383.8,223.8c0.6,0,1-0.4,1-1c0-0.6-0.4-1-1-1
	L383.8,223.8z M387.7,222c-0.6,0-1,0.4-1.1,0.9c0,0.6,0.4,1,0.9,1.1L387.7,222z M391.2,224.4c0.5,0.1,1-0.3,1.1-0.9
	c0.1-0.5-0.3-1-0.9-1.1L391.2,224.4z M395.2,223c-0.5-0.1-1.1,0.3-1.1,0.8c-0.1,0.5,0.3,1.1,0.8,1.1L395.2,223z M398.6,225.5
	c0.5,0.1,1.1-0.3,1.1-0.9c0.1-0.5-0.3-1.1-0.9-1.1L398.6,225.5z M402.6,223.9c-0.6,0-1,0.4-1.1,0.9c0,0.6,0.4,1,0.9,1.1L402.6,223.9
	z M406.3,226c0.6,0,1-0.4,1-1c0-0.6-0.4-1-1-1L406.3,226z M410,223.9c-0.6,0-1,0.5-0.9,1.1c0,0.6,0.5,1,1.1,0.9L410,223.9z
	 M414,225.5c0.5-0.1,0.9-0.6,0.8-1.1c-0.1-0.5-0.6-0.9-1.1-0.8L414,225.5z M417.3,222.7c-0.5,0.1-0.9,0.7-0.7,1.2
	c0.1,0.5,0.7,0.9,1.2,0.7L417.3,222.7z M421.5,223.5c0.5-0.2,0.8-0.8,0.6-1.3c-0.2-0.5-0.8-0.8-1.3-0.6L421.5,223.5z M424.1,220.1
	c-0.5,0.3-0.7,0.9-0.4,1.4c0.3,0.5,0.9,0.7,1.4,0.4L424.1,220.1z M428.3,219.7c0.4-0.3,0.5-1,0.2-1.4c-0.3-0.4-1-0.5-1.4-0.2
	L428.3,219.7z M429.6,215.7c-0.3,0.4-0.3,1.1,0.1,1.4c0.4,0.3,1.1,0.3,1.4-0.1L429.6,215.7z M433.3,213.2c0.2-0.5-0.1-1.1-0.6-1.3
	c-0.5-0.2-1.1,0.1-1.3,0.6L433.3,213.2z M432.1,208.8c-0.1,0.6,0.4,1,0.9,1.1c0.6,0.1,1-0.4,1.1-0.9L432.1,208.8z M434.2,204.7
	c0-0.6-0.5-1-1-1c-0.6,0-1,0.5-1,1L434.2,204.7z M432,200.8c0.1,0.5,0.5,1,1.1,0.9s1-0.5,0.9-1.1L432,200.8z M433.5,196.4
	c-0.1-0.5-0.6-0.9-1.1-0.8c-0.5,0.1-0.9,0.6-0.8,1.1L433.5,196.4z M430.8,192.7c0.1,0.5,0.6,0.9,1.2,0.8s0.9-0.6,0.8-1.2
	L430.8,192.7z M431.9,188.3c-0.1-0.5-0.7-0.9-1.2-0.7c-0.5,0.1-0.9,0.7-0.7,1.2L431.9,188.3z M428.9,184.8c0.2,0.5,0.7,0.8,1.2,0.7
	c0.5-0.1,0.8-0.7,0.7-1.2L428.9,184.8z M429.6,180.3c-0.2-0.5-0.7-0.8-1.3-0.6c-0.5,0.2-0.8,0.7-0.6,1.3L429.6,180.3z M426.4,177.1
	c0.2,0.5,0.8,0.8,1.3,0.6c0.5-0.2,0.8-0.8,0.6-1.3L426.4,177.1z M426.7,172.5c-0.2-0.5-0.8-0.7-1.3-0.5c-0.5,0.2-0.7,0.8-0.5,1.3
	L426.7,172.5z M423.2,169.7c0.2,0.5,0.8,0.7,1.3,0.4c0.5-0.2,0.7-0.8,0.5-1.3L423.2,169.7z M423,165.2c-0.3-0.5-0.9-0.6-1.4-0.3
	c-0.5,0.3-0.6,0.9-0.3,1.4L423,165.2z M419.3,163.2c0.3,0.4,1,0.5,1.4,0.2c0.4-0.3,0.5-1,0.2-1.4L419.3,163.2z M418.3,159
	c-0.4-0.4-1-0.4-1.4,0c-0.4,0.4-0.4,1,0,1.4L418.3,159z M414.1,158c0.4,0.3,1.1,0.2,1.4-0.2c0.3-0.4,0.2-1.1-0.2-1.4L414.1,158z
	 M412.1,154.3c-0.5-0.3-1.1-0.1-1.4,0.3c-0.3,0.5-0.1,1.1,0.3,1.4L412.1,154.3z M407.8,154c0.5,0.3,1.1,0.2,1.4-0.3s0.2-1.1-0.3-1.4
	L407.8,154z M406,150.1c-0.4-0.4-1-0.3-1.4,0.1c-0.4,0.4-0.3,1,0.1,1.4L406,150.1z M402,148.6c0.3,0.4,1,0.5,1.4,0.2
	c0.4-0.3,0.5-0.9,0.2-1.4L402,148.6z M401.8,144.4c-0.2-0.5-0.8-0.8-1.3-0.5c-0.5,0.2-0.8,0.8-0.5,1.3L401.8,144.4z M398.8,141.4
	c0.1,0.5,0.6,0.9,1.2,0.8c0.5-0.1,0.9-0.6,0.8-1.2L398.8,141.4z M400.2,137.3c-0.1-0.5-0.5-0.9-1.1-0.9c-0.5,0.1-0.9,0.5-0.9,1.1
	L400.2,137.3z M398,133.7c0,0.6,0.5,1,1,1c0.6,0,1-0.5,1-1L398,133.7z M400,129.9c0-0.6-0.4-1-1-1c-0.6,0-1,0.4-1,1L400,129.9z
	 M398.2,126.1c0,0.5,0.4,1,0.9,1.1c0.6,0,1-0.4,1.1-0.9L398.2,126.1z M400.6,122.5c0.1-0.5-0.3-1.1-0.9-1.1
	c-0.5-0.1-1.1,0.3-1.1,0.9L400.6,122.5z M399.2,118.5c-0.1,0.5,0.3,1.1,0.8,1.2c0.5,0.1,1.1-0.3,1.2-0.8L399.2,118.5z M401.9,115.2
	c0.1-0.5-0.2-1.1-0.8-1.2s-1.1,0.2-1.2,0.8L401.9,115.2z M400.9,111.1c-0.2,0.5,0.2,1.1,0.7,1.2c0.5,0.2,1.1-0.2,1.2-0.7
	L400.9,111.1z M404,108.1c0.2-0.5-0.1-1.1-0.6-1.3c-0.5-0.2-1.1,0.1-1.3,0.6L404,108.1z M403.5,103.9c-0.2,0.5,0,1.1,0.5,1.3
	c0.5,0.2,1.1,0,1.3-0.5L403.5,103.9z M407,101.5c0.3-0.5,0.1-1.1-0.3-1.4c-0.5-0.3-1.1-0.1-1.4,0.3L407,101.5z M407.7,97.3
	c-0.4,0.4-0.3,1,0.1,1.4c0.4,0.4,1,0.3,1.4-0.1L407.7,97.3z M412.2,96.1c0.5-0.3,0.6-0.9,0.3-1.4c-0.3-0.5-0.9-0.6-1.4-0.3
	L412.2,96.1z M415.3,92.3c-0.5,0.2-0.8,0.7-0.7,1.3c0.2,0.5,0.7,0.8,1.3,0.7L415.3,92.3z M419.9,94c0.5,0.1,1.1-0.2,1.2-0.7
	c0.1-0.5-0.2-1.1-0.7-1.2L419.9,94z M424.7,94.7c-0.4-0.4-1-0.4-1.4,0c-0.4,0.4-0.4,1,0,1.4L424.7,94.7z M425.6,99.6
	c0.2,0.5,0.8,0.7,1.3,0.5c0.5-0.2,0.7-0.8,0.5-1.3L425.6,99.6z M429.1,103.1c-0.2-0.5-0.7-0.8-1.2-0.7c-0.5,0.2-0.8,0.7-0.7,1.2
	L429.1,103.1z M428.4,108.1c0.2,0.5,0.7,0.8,1.3,0.6c0.5-0.2,0.8-0.7,0.6-1.3L428.4,108.1z M432.2,110.9c-0.4-0.4-1-0.3-1.4,0.1
	c-0.4,0.4-0.3,1,0.1,1.4L432.2,110.9z M434.9,114.4c0.4,0.3,1.1,0.2,1.4-0.2c0.3-0.4,0.2-1.1-0.2-1.4L434.9,114.4z M438.7,117.1
	c-0.2-0.5-0.7-0.8-1.2-0.7c-0.5,0.2-0.8,0.7-0.7,1.2L438.7,117.1z M437.6,121.5c0.1,0.6,0.5,1,1.1,0.9c0.5-0.1,1-0.5,0.9-1.1
	L437.6,121.5z M439.5,125.2c0.1-0.5-0.3-1.1-0.9-1.1c-0.5-0.1-1.1,0.3-1.1,0.9L439.5,125.2z M436.7,128.2c-0.2,0.5,0.1,1.1,0.6,1.3
	c0.5,0.2,1.1-0.1,1.3-0.6L436.7,128.2z M437.1,132.4c0.2-0.5,0-1.1-0.5-1.3c-0.5-0.2-1.1,0-1.3,0.5L437.1,132.4z M433.8,134.9
	c-0.2,0.5,0,1.1,0.5,1.3c0.5,0.2,1.1,0,1.3-0.5L433.8,134.9z M434.5,139c0.1-0.5-0.2-1.1-0.7-1.2c-0.5-0.1-1.1,0.2-1.2,0.7
	L434.5,139z M432,142.3c0,0.6,0.4,1,1,1c0.6,0,1-0.4,1-1L432,142.3z M434.2,145.9c-0.1-0.5-0.6-0.9-1.1-0.9
	c-0.5,0.1-0.9,0.6-0.9,1.1L434.2,145.9z M433.1,149.9c0.2,0.5,0.8,0.8,1.3,0.6c0.5-0.2,0.8-0.8,0.6-1.3L433.1,149.9z M436.7,152.2
	c-0.3-0.4-1-0.5-1.4-0.2c-0.4,0.3-0.5,1-0.2,1.4L436.7,152.2z M437.7,156.2c0.4,0.4,1,0.4,1.4-0.1c0.4-0.4,0.4-1-0.1-1.4
	L437.7,156.2z M441.8,157c-0.4-0.3-1.1-0.2-1.4,0.2c-0.3,0.4-0.2,1.1,0.2,1.4L441.8,157z M443.7,160.8c0.5,0.3,1.1,0.2,1.4-0.3
	c0.3-0.5,0.2-1.1-0.3-1.4L443.7,160.8z M447.9,161.1c-0.5-0.3-1.1-0.1-1.4,0.3c-0.3,0.5-0.1,1.1,0.3,1.4L447.9,161.1z M450,164.7
	c0.5,0.3,1.1,0.1,1.4-0.3s0.1-1.1-0.3-1.4L450,164.7z M454.2,164.9c-0.5-0.3-1.1-0.2-1.4,0.3c-0.3,0.5-0.2,1.1,0.3,1.4L454.2,164.9z
	 M456.2,168.6c0.4,0.3,1.1,0.2,1.4-0.2c0.3-0.4,0.2-1.1-0.2-1.4L456.2,168.6z M460.3,169.4c-0.4-0.4-1-0.3-1.4,0.1
	c-0.4,0.4-0.3,1,0.1,1.4L460.3,169.4z M461.3,173.5c0.3,0.5,0.9,0.6,1.4,0.2c0.5-0.3,0.6-0.9,0.2-1.4L461.3,173.5z M464.6,176
	c-0.1-0.5-0.7-0.9-1.2-0.7s-0.9,0.7-0.7,1.2L464.6,176z M462.9,180.1c0,0.6,0.4,1,1,1c0.6,0,1-0.4,1-1L462.9,180.1z M464.8,184.2
	c0-0.6-0.4-1-1-1c-0.6,0-1,0.4-1,1L464.8,184.2z M462.7,188.2c0,0.6,0.4,1,1,1c0.6,0,1-0.4,1-1L462.7,188.2z M464.6,192.3
	c0-0.6-0.4-1-1-1c-0.6,0-1,0.4-1,1L464.6,192.3z M462.7,196.4c0,0.6,0.5,1,1.1,0.9c0.6,0,1-0.5,0.9-1.1L462.7,196.4z M465.1,200.2
	c-0.1-0.5-0.6-0.9-1.1-0.8c-0.5,0.1-0.9,0.6-0.8,1.1L465.1,200.2z M464,204.6c0.1,0.5,0.7,0.9,1.2,0.7c0.5-0.1,0.9-0.7,0.7-1.2
	L464,204.6z M467.2,207.9c-0.2-0.5-0.8-0.8-1.3-0.6c-0.5,0.2-0.8,0.8-0.6,1.3L467.2,207.9z M466.8,212.2c0.2,0.5,0.8,0.8,1.3,0.5
	c0.5-0.2,0.8-0.8,0.5-1.3L466.8,212.2z M470,215.1c-0.2-0.5-0.7-0.8-1.3-0.6c-0.5,0.2-0.8,0.7-0.6,1.3L470,215.1z M469.1,219.2
	c0.1,0.5,0.7,0.9,1.2,0.8c0.5-0.1,0.9-0.7,0.8-1.2L469.1,219.2z M471.6,222.6c-0.1-0.6-0.5-1-1.1-0.9c-0.6,0.1-1,0.5-0.9,1.1
	L471.6,222.6z M469.8,226.5c0,0.6,0.4,1,1,1c0.6,0,1-0.4,1-1L469.8,226.5z M471.5,230.4c0.1-0.5-0.3-1-0.9-1.1
	c-0.5-0.1-1,0.3-1.1,0.9L471.5,230.4z M469.1,233.8c-0.1,0.5,0.3,1.1,0.8,1.1c0.5,0.1,1.1-0.3,1.1-0.8L469.1,233.8z M470.5,237.9
	c0.1-0.5-0.3-1.1-0.8-1.2c-0.5-0.1-1.1,0.3-1.2,0.8L470.5,237.9z M467.7,241.7c-0.1,0.5,0.2,1.1,0.7,1.2c0.5,0.1,1.1-0.2,1.2-0.7
	L467.7,241.7z M467.8,247.1c0.2-0.5,0.1-1.1-0.4-1.3c-0.5-0.2-1.1-0.1-1.3,0.4L467.8,247.1z M463.4,250.1c-0.4,0.4-0.3,1.1,0.1,1.4
	c0.4,0.4,1.1,0.3,1.4-0.1L463.4,250.1z M461.8,255c0.3-0.5,0.1-1.1-0.3-1.4c-0.5-0.3-1.1-0.1-1.4,0.3L461.8,255z M460.7,258.9
	c0.2,0.5,0.9,0.7,1.3,0.4c0.5-0.2,0.7-0.9,0.4-1.3L460.7,258.9z M464.2,261.2c-0.3-0.5-0.9-0.6-1.4-0.4c-0.5,0.3-0.6,0.9-0.4,1.4
	L464.2,261.2z M464.4,265.3c0.3,0.5,0.9,0.6,1.4,0.3c0.5-0.3,0.6-0.9,0.3-1.4L464.4,265.3z M468,267.4c-0.3-0.5-0.9-0.6-1.4-0.3
	c-0.5,0.3-0.6,0.9-0.3,1.4L468,267.4z M468.3,271.6c0.3,0.5,0.9,0.6,1.4,0.3c0.5-0.3,0.6-0.9,0.3-1.4L468.3,271.6z M471.9,273.6
	c-0.3-0.5-0.9-0.6-1.4-0.3c-0.5,0.3-0.6,0.9-0.3,1.4L471.9,273.6z M472.2,277.8c0.3,0.5,0.9,0.6,1.4,0.3c0.5-0.3,0.6-0.9,0.3-1.4
	L472.2,277.8z M475.8,279.8c-0.3-0.5-0.9-0.6-1.4-0.3c-0.5,0.3-0.6,0.9-0.3,1.4L475.8,279.8z M476.2,284.1c0.3,0.5,0.9,0.6,1.4,0.3
	c0.5-0.3,0.6-0.9,0.3-1.4L476.2,284.1z M479.9,286.5c-0.3-0.5-0.9-0.7-1.4-0.4c-0.5,0.3-0.7,0.9-0.4,1.4L479.9,286.5z M480,290.9
	c0.3,0.5,0.9,0.7,1.3,0.4c0.5-0.3,0.7-0.9,0.4-1.3L480,290.9z M483.6,293.6c-0.2-0.5-0.8-0.7-1.3-0.5c-0.5,0.2-0.7,0.8-0.5,1.3
	L483.6,293.6z M483.4,298c0.2,0.5,0.8,0.7,1.3,0.5c0.5-0.2,0.7-0.8,0.5-1.3L483.4,298z M486.8,300.9c-0.2-0.5-0.8-0.8-1.3-0.5
	c-0.5,0.2-0.8,0.8-0.5,1.3L486.8,300.9z M486.4,305.3c0.2,0.5,0.8,0.8,1.3,0.6c0.5-0.2,0.8-0.8,0.6-1.3L486.4,305.3z M489.7,308.3
	c-0.2-0.5-0.8-0.8-1.3-0.6c-0.5,0.2-0.8,0.8-0.6,1.3L489.7,308.3z M489.2,312.7c0.2,0.5,0.8,0.8,1.3,0.6c0.5-0.2,0.8-0.8,0.6-1.3
	L489.2,312.7z M492.3,315.7c-0.2-0.5-0.7-0.8-1.3-0.6c-0.5,0.2-0.8,0.7-0.6,1.3L492.3,315.7z M491.7,320.1c0.2,0.5,0.7,0.8,1.3,0.6
	c0.5-0.2,0.8-0.7,0.6-1.3L491.7,320.1z M494.8,323.3c-0.2-0.5-0.7-0.8-1.3-0.6c-0.5,0.2-0.8,0.7-0.6,1.3L494.8,323.3z M494.1,327.6
	c0.2,0.5,0.7,0.8,1.3,0.6c0.5-0.2,0.8-0.7,0.6-1.3L494.1,327.6z M281.8,114.5l0.1,1c0.3,0,0.7,0.1,1.3,0.3l0.4-0.9l0.4-0.9
	c-0.7-0.4-1.5-0.6-2.3-0.6L281.8,114.5z M286.6,117.2l-0.7,0.7c0.8,0.8,1.6,1.7,2.4,2.7l0.8-0.6l0.8-0.6c-0.9-1.1-1.7-2-2.6-2.8
	L286.6,117.2z M291.3,122.9l-0.8,0.6c0.7,1,1.4,2,2.1,3l0.8-0.6l0.8-0.6c-0.7-1.1-1.4-2.1-2.1-3.1L291.3,122.9z M295.5,129.1
	l-0.9,0.5c0.7,1.1,1.3,2.1,1.9,3.2l0.9-0.5l0.9-0.5c-0.6-1-1.3-2.1-1.9-3.2L295.5,129.1z M299.2,135.6l-0.9,0.5
	c0.3,0.6,0.6,1.1,0.9,1.6l0.9-0.5l0.9-0.5c-0.3-0.5-0.6-1.1-0.9-1.7L299.2,135.6z M300.1,137.2l-0.8,0.6c0.4,0.5,0.8,1,1.2,1.5
	l0.8-0.6l0.8-0.6c-0.4-0.4-0.7-0.9-1.2-1.5L300.1,137.2z M303.5,141.6l-0.8,0.6c0.7,1,1.2,1.9,1.6,3l0.9-0.3l0.9-0.3
	c-0.5-1.3-1-2.3-1.8-3.5L303.5,141.6z M306.2,148.5l-1,0.2c0.1,0.5,0.2,1.1,0.3,1.8l1-0.2l1-0.2c-0.1-0.7-0.2-1.3-0.3-1.8
	L306.2,148.5z M306.5,150.3l-1,0.2c0.1,0.6,0.2,1.2,0.3,2l1-0.2l1-0.2c-0.1-0.7-0.2-1.4-0.4-2L306.5,150.3z M307.5,156.2l-1,0.2
	c0.2,1.2,0.4,2.6,0.7,3.9l1-0.2l1-0.2c-0.2-1.4-0.5-2.7-0.7-3.9L307.5,156.2z M308.9,164.1l-1,0.2c0.2,1.3,0.5,2.6,0.7,3.9l1-0.2
	l1-0.2c-0.2-1.3-0.5-2.6-0.7-3.9L308.9,164.1z M310.3,171.9l-1,0.2c0.3,1.4,0.5,2.7,0.7,3.9l1-0.2l1-0.2c-0.2-1.2-0.5-2.6-0.7-3.9
	L310.3,171.9z M311.9,179.8l-1,0.2c0.2,0.7,0.3,1.4,0.4,2l1-0.2l1-0.2c-0.1-0.6-0.3-1.2-0.4-1.9L311.9,179.8z M312.3,181.7l-1,0.2
	c0.2,0.7,0.4,1.3,0.6,1.9l0.9-0.4l0.9-0.4c-0.2-0.5-0.4-1-0.5-1.6L312.3,181.7z M315,186.3l-0.5,0.8c1.4,0.9,3,0.9,4.5,0l-0.5-0.8
	l-0.6-0.8c-0.8,0.5-1.6,0.5-2.3,0L315,186.3z M320.6,183.4l0.9,0.4c0.3-0.5,0.5-1.2,0.7-1.8l-1-0.3l-1-0.3c-0.2,0.6-0.4,1.1-0.6,1.6
	L320.6,183.4z M321.2,181.7l1,0.3c0.2-0.8,0.4-1.5,0.7-2.3l-1-0.3l-1-0.3c-0.2,0.7-0.4,1.5-0.6,2.2L321.2,181.7z M323.2,175l0.9,0.3
	c0.5-1.5,1.1-2.9,1.9-4l-0.8-0.6l-0.8-0.6c-0.9,1.3-1.5,2.8-2.1,4.4L323.2,175z M328.7,167.9l0.4,0.9c0.6-0.2,1.2-0.4,2-0.4l-0.1-1
	l-0.1-1c-0.9,0-1.8,0.2-2.6,0.5L328.7,167.9z M331,167.4l0.1,1c0.7,0,1.3,0.1,1.9,0.2l0.3-0.9l0.3-0.9c-0.8-0.3-1.7-0.4-2.6-0.4
	L331,167.4z M336.5,170.7l-0.9,0.5c0.6,1.1,1,2.5,1.2,4l1-0.1l1-0.1c-0.2-1.7-0.7-3.3-1.5-4.7L336.5,170.7z M337.9,179.5l-1-0.1
	c-0.1,0.7-0.3,1.4-0.5,2.1l1,0.3l1,0.3c0.2-0.8,0.4-1.6,0.5-2.4L337.9,179.5z M337.4,181.7l-1-0.3c-0.3,1-0.7,1.8-1.1,2.5l0.8,0.5
	l0.8,0.5c0.5-0.8,1-1.7,1.3-2.9L337.4,181.7z M332.5,189l-0.9-0.4c-0.4,0.9-0.5,2-0.5,3.4l1-0.1l1-0.1c-0.1-1.1,0.1-1.9,0.3-2.5
	L332.5,189z M332.1,191.9l-1,0.1c0,0.7,0.2,1.5,0.5,2.4l1-0.3l1-0.3c-0.2-0.7-0.4-1.4-0.4-1.9L332.1,191.9z M334.1,198.1l-0.9,0.4
	c0.6,1.3,1.2,2.6,1.8,4l0.9-0.4l0.9-0.4c-0.6-1.4-1.3-2.7-1.8-3.9L334.1,198.1z M337.7,206.1l-0.9,0.4c0.5,1.4,1,2.7,1.4,4l1-0.3
	l1-0.3c-0.4-1.4-0.9-2.8-1.5-4.2L337.7,206.1z M339.8,214.5l-1,0c0,0.7,0,1.3-0.1,2l1,0.2l1,0.2c0.1-0.8,0.2-1.6,0.1-2.4
	L339.8,214.5z M339.7,216.6l-1-0.2c-0.1,0.8-0.1,1.6,0.1,2.4l1-0.3l1-0.3c-0.1-0.4-0.2-0.9-0.1-1.5L339.7,216.6z M342.2,221.5
	l-0.5,0.8c1.1,0.7,2.4,1.2,3.8,1.6l0.3-1l0.3-1c-1.3-0.4-2.4-0.9-3.3-1.4L342.2,221.5z M349.6,223.8l-0.2,1c1.3,0.2,2.6,0.3,3.9,0.5
	l0.1-1l0.1-1c-1.3-0.1-2.6-0.2-3.8-0.4L349.6,223.8z M357.3,224.5l0,1c1.3,0,2.6,0,3.9,0l0-1l0-1c-1.3,0-2.6,0-3.8,0L357.3,224.5z
	 M365.1,224.3l0,1c0.7,0,1.3-0.1,2-0.1l-0.1-1l-0.1-1c-0.6,0-1.3,0.1-1.9,0.1L365.1,224.3z M367,224.2l0.1,1c0.7,0,1.3-0.1,1.9-0.1
	l-0.1-1l-0.1-1c-0.6,0.1-1.2,0.1-1.9,0.1L367,224.2z M372.6,223.7l0.1,1c0.7-0.1,1.3-0.2,1.9-0.2c0.6-0.1,1.2-0.2,1.8-0.2l-0.1-1
	l-0.1-1c-0.6,0.1-1.2,0.1-1.8,0.2c-0.6,0.1-1.3,0.2-1.9,0.2L372.6,223.7z M380.1,222.9l0.1,1c1.1-0.1,2.3-0.1,3.7-0.1l0-1l0-1
	c-1.4,0-2.6,0-3.8,0.1L380.1,222.9z M387.6,223l-0.1,1c1.1,0.1,2.3,0.2,3.7,0.4l0.1-1l0.1-1c-1.4-0.2-2.6-0.3-3.8-0.4L387.6,223z
	 M395,223.9l-0.2,1c0.6,0.1,1.2,0.2,1.9,0.3l0.2-1l0.2-1c-0.6-0.1-1.3-0.2-1.9-0.3L395,223.9z M396.9,224.2l-0.2,1
	c0.6,0.1,1.3,0.2,1.9,0.3l0.1-1l0.1-1c-0.6-0.1-1.2-0.2-1.8-0.3L396.9,224.2z M402.5,224.9l-0.1,1c1.3,0.1,2.6,0.1,3.8,0.1l0-1l0-1
	c-1.2,0-2.4,0-3.7-0.1L402.5,224.9z M410.1,224.9l0.1,1c1.3-0.1,2.6-0.2,3.8-0.4l-0.2-1l-0.2-1c-1.2,0.2-2.4,0.3-3.7,0.4
	L410.1,224.9z M417.5,223.7l0.2,1c1.3-0.3,2.5-0.7,3.7-1.2l-0.4-0.9l-0.4-0.9c-1.1,0.4-2.3,0.8-3.5,1.1L417.5,223.7z M424.6,221
	l0.5,0.9c1.2-0.7,2.3-1.4,3.3-2.2l-0.6-0.8l-0.6-0.8c-0.9,0.7-1.9,1.4-3,2L424.6,221z M430.4,216.3l0.8,0.6c0.4-0.5,0.8-1.1,1.2-1.6
	l-0.9-0.5l-0.9-0.5c-0.3,0.5-0.6,1-1,1.4L430.4,216.3z M431.5,214.7l0.9,0.5c0.4-0.6,0.7-1.3,0.9-2.1l-0.9-0.3l-1-0.3
	c-0.2,0.6-0.5,1.2-0.7,1.7L431.5,214.7z M433.1,208.9l1,0.1c0.1-1.3,0.2-2.7,0.1-4.2l-1,0l-1,0c0,1.4,0,2.8-0.1,4L433.1,208.9z
	 M433,200.7l1-0.1c-0.1-1.3-0.3-2.7-0.5-4.1l-1,0.2l-1,0.2c0.2,1.4,0.4,2.7,0.5,4L433,200.7z M431.8,192.5l1-0.2
	c-0.3-1.3-0.6-2.7-0.9-4.1l-1,0.2l-1,0.2c0.3,1.3,0.6,2.7,0.9,4L431.8,192.5z M429.8,184.6l1-0.3c-0.4-1.3-0.8-2.7-1.2-4l-1,0.3
	l-1,0.3c0.4,1.3,0.8,2.6,1.2,3.9L429.8,184.6z M427.3,176.8l0.9-0.3c-0.5-1.3-1-2.6-1.5-3.9l-0.9,0.4l-0.9,0.4
	c0.5,1.2,1,2.5,1.5,3.8L427.3,176.8z M424.1,169.2l0.9-0.4c-0.3-0.6-0.6-1.2-1-1.8l-0.9,0.5l-0.9,0.5c0.3,0.6,0.6,1.2,0.9,1.8
	L424.1,169.2z M423.1,167.4l0.9-0.5c-0.3-0.6-0.6-1.2-1-1.7l-0.9,0.5l-0.9,0.5c0.3,0.5,0.6,1.1,0.9,1.6L423.1,167.4z M420.1,162.6
	l0.8-0.6c-0.9-1.1-1.7-2.1-2.6-3l-0.7,0.7l-0.7,0.7c0.8,0.8,1.6,1.7,2.4,2.8L420.1,162.6z M414.7,157.2l0.6-0.8
	c-1.1-0.8-2.2-1.5-3.2-2.1l-0.5,0.9L411,156c1,0.6,2.1,1.3,3.1,2L414.7,157.2z M408.3,153.1l0.5-0.8c-1-0.7-2-1.4-2.9-2.2l-0.7,0.7
	l-0.7,0.7c1,0.9,2.1,1.7,3.1,2.4L408.3,153.1z M402.8,148l0.8-0.6c-0.3-0.5-0.7-1-1-1.5l-0.9,0.5l-0.9,0.5c0.4,0.6,0.7,1.1,1.1,1.7
	L402.8,148z M401.7,146.4l0.9-0.5c-0.3-0.5-0.5-1-0.8-1.5l-0.9,0.4l-0.9,0.4c0.3,0.6,0.6,1.3,0.9,1.8L401.7,146.4z M399.8,141.1
	l1-0.2c-0.2-1.1-0.4-2.3-0.6-3.6l-1,0.1l-1,0.1c0.1,1.3,0.3,2.6,0.6,3.8L399.8,141.1z M399,133.7l1,0c0-1.2,0-2.4,0-3.7l-1,0l-1,0
	c0,1.3,0,2.6,0,3.8L399,133.7z M399.2,126.2l1,0.1c0.1-1.2,0.2-2.5,0.4-3.7l-1-0.1l-1-0.1c-0.2,1.3-0.3,2.5-0.4,3.8L399.2,126.2z
	 M400.2,118.7l1,0.2c0.2-1.2,0.5-2.4,0.7-3.6l-1-0.2l-1-0.2c-0.3,1.2-0.5,2.5-0.8,3.7L400.2,118.7z M401.9,111.4l1,0.3
	c0.4-1.2,0.7-2.4,1.1-3.5l-0.9-0.3l-0.9-0.3c-0.4,1.2-0.8,2.4-1.2,3.6L401.9,111.4z M404.4,104.3l0.9,0.4c0.5-1.2,1.1-2.2,1.7-3.2
	l-0.9-0.5l-0.9-0.5c-0.6,1.1-1.2,2.2-1.8,3.4L404.4,104.3z M408.4,97.9l0.7,0.7c0.4-0.5,0.8-0.9,1.2-1.2l-0.6-0.8l-0.6-0.8
	c-0.5,0.4-1,0.9-1.5,1.4L408.4,97.9z M409.8,96.6l0.6,0.8c0.6-0.5,1.2-0.9,1.7-1.3l-0.6-0.8l-0.6-0.8c-0.6,0.4-1.2,0.9-1.9,1.4
	L409.8,96.6z M415.6,93.2l0.3,1c1.5-0.5,2.8-0.5,3.9-0.2l0.3-1l0.3-1c-1.6-0.4-3.3-0.3-5,0.2L415.6,93.2z M424,95.4l-0.7,0.7
	c0.9,0.9,1.6,2.1,2.4,3.5l0.9-0.4l0.9-0.4c-0.8-1.6-1.7-2.9-2.7-4L424,95.4z M428.1,103.4l-1,0.3c0.2,0.7,0.4,1.4,0.6,2.1l1-0.2
	l1-0.2c-0.2-0.8-0.4-1.5-0.6-2.3L428.1,103.4z M428.7,105.6l-1,0.2c0.2,0.8,0.4,1.6,0.6,2.3l0.9-0.3l0.9-0.3
	c-0.2-0.6-0.4-1.3-0.6-2.1L428.7,105.6z M431.5,111.6l-0.7,0.8c0.8,0.7,1.6,1,2.3,1.3c0.7,0.3,1.2,0.4,1.7,0.8l0.6-0.8l0.6-0.8
	c-0.8-0.6-1.6-0.8-2.2-1c-0.6-0.2-1.2-0.4-1.7-0.9L431.5,111.6z M437.8,117.4l-1,0.3c0.2,0.6,0.4,1.3,0.5,2.1l1-0.2l1-0.2
	c-0.2-0.9-0.4-1.6-0.6-2.3L437.8,117.4z M438.3,119.6l-1,0.2c0.1,0.6,0.2,1.2,0.3,1.7l1-0.1l1-0.1c-0.1-0.6-0.2-1.3-0.3-1.9
	L438.3,119.6z M438.5,125l-1-0.1c-0.2,1.2-0.5,2.3-0.9,3.3l0.9,0.3l0.9,0.3c0.4-1.2,0.8-2.4,1-3.7L438.5,125z M436.2,131.9l-0.9-0.4
	c-0.5,1.1-1,2.2-1.5,3.4l0.9,0.4l0.9,0.4c0.5-1.1,1-2.2,1.5-3.3L436.2,131.9z M433.5,138.7l-1-0.2c-0.3,1.2-0.5,2.4-0.5,3.8l1,0l1,0
	c0.1-1.2,0.2-2.4,0.5-3.4L433.5,138.7z M433.2,146l-1,0.1c0.1,0.6,0.2,1.2,0.3,1.9l1-0.2l1-0.2c-0.1-0.6-0.2-1.2-0.3-1.7L433.2,146z
	 M433.5,147.8l-1,0.2c0.1,0.7,0.3,1.3,0.6,1.9l0.9-0.4l0.9-0.4c-0.2-0.5-0.4-1.1-0.5-1.6L433.5,147.8z M435.9,152.8l-0.8,0.6
	c0.8,1,1.6,2,2.6,2.9l0.7-0.7l0.7-0.7c-0.9-0.8-1.7-1.7-2.4-2.6L435.9,152.8z M441.2,157.8l-0.6,0.8c1,0.7,2,1.4,3.1,2.1l0.5-0.8
	l0.5-0.8c-1-0.7-2-1.4-3-2.1L441.2,157.8z M447.4,161.9l-0.5,0.9c1.1,0.6,2.1,1.3,3.2,1.9l0.5-0.9l0.5-0.9c-1.1-0.6-2.1-1.3-3.2-1.9
	L447.4,161.9z M453.7,165.8l-0.5,0.8c1.1,0.7,2.1,1.4,3,2l0.6-0.8l0.6-0.8c-1-0.7-2-1.4-3.1-2.1L453.7,165.8z M459.6,170.2l-0.7,0.7
	c0.9,0.8,1.7,1.7,2.3,2.6l0.8-0.6l0.8-0.6c-0.7-1-1.6-2-2.6-2.9L459.6,170.2z M463.7,176.2l-1,0.2c0.1,0.5,0.2,1.1,0.2,1.6l1,0l1,0
	c0-0.7-0.1-1.4-0.3-2.1L463.7,176.2z M463.9,178l-1,0c0,0.7,0,1.4,0,2l1,0l1,0c0-0.7,0-1.4,0-2.1L463.9,178z M463.8,184.1l-1,0
	c0,1.4-0.1,2.7-0.1,4.1l1,0l1,0c0-1.3,0.1-2.7,0.1-4.1L463.8,184.1z M463.6,192.3l-1,0c0,1.4,0,2.8,0.1,4.1l1-0.1l1-0.1
	c-0.1-1.3-0.1-2.6-0.1-4L463.6,192.3z M464.2,200.4l-1,0.2c0.2,1.3,0.5,2.7,0.8,4.1l1-0.3l1-0.3c-0.3-1.3-0.6-2.6-0.8-3.9
	L464.2,200.4z M466.2,208.2l-0.9,0.4c0.2,0.6,0.5,1.3,0.8,1.9l0.9-0.4l0.9-0.4c-0.3-0.6-0.5-1.2-0.8-1.8L466.2,208.2z M467,210.1
	l-0.9,0.4c0.3,0.6,0.5,1.2,0.7,1.7l0.9-0.4l0.9-0.4c-0.2-0.6-0.5-1.2-0.7-1.8L467,210.1z M469,215.4l-1,0.3c0.4,1.2,0.7,2.4,1,3.5
	l1-0.2l1-0.2c-0.3-1.2-0.6-2.4-1-3.7L469,215.4z M470.6,222.7l-1,0.1c0.1,1.2,0.2,2.4,0.1,3.7l1,0l1,0c0-1.3,0-2.6-0.1-3.9
	L470.6,222.7z M470.5,230.3l-1-0.1c-0.1,1.2-0.3,2.4-0.5,3.7l1,0.1l1,0.1c0.2-1.3,0.4-2.6,0.5-3.8L470.5,230.3z M469.5,237.7l-1-0.2
	c-0.1,0.6-0.2,1.2-0.3,1.9l1,0.2l1,0.2c0.1-0.6,0.2-1.3,0.3-1.9L469.5,237.7z M469.2,239.6l-1-0.2c-0.1,0.8-0.3,1.6-0.5,2.3l1,0.3
	l1,0.3c0.2-0.8,0.4-1.6,0.5-2.5L469.2,239.6z M466.9,246.6l-0.9-0.5c-0.8,1.6-1.7,2.9-2.6,3.9l0.8,0.6l0.8,0.6
	c0.9-1.1,2-2.5,2.9-4.3L466.9,246.6z M461,254.5l-0.9-0.5c-0.3,0.5-0.5,1-0.5,1.6c-0.1,0.6,0.1,1.2,0.4,1.7l0.9-0.4l0.9-0.4
	c-0.1-0.3-0.2-0.5-0.2-0.7c0-0.2,0.1-0.4,0.3-0.7L461,254.5z M460.8,256.8l-0.9,0.4c0.3,0.6,0.5,1.1,0.8,1.7l0.9-0.5l0.9-0.5
	c-0.3-0.5-0.5-1.1-0.8-1.6L460.8,256.8z M463.4,261.7l-0.9,0.5c0.5,0.9,1.1,1.9,1.9,3.2l0.9-0.5l0.9-0.5c-0.8-1.3-1.4-2.3-1.9-3.1
	L463.4,261.7z M467.2,268l-0.9,0.5c0.6,0.9,1.2,2,1.9,3.1l0.8-0.5l0.8-0.5c-0.7-1.1-1.4-2.2-1.9-3.1L467.2,268z M471.1,274.2
	l-0.8,0.5c0.6,1,1.3,2,2,3.1l0.8-0.5l0.8-0.5c-0.7-1.1-1.4-2.1-2-3.1L471.1,274.2z M475,280.4l-0.8,0.5c0.3,0.5,0.7,1,1,1.6l0.8-0.5
	l0.8-0.5c-0.3-0.5-0.7-1-1-1.5L475,280.4z M476,281.9l-0.8,0.5c0.4,0.5,0.7,1.1,1,1.7l0.9-0.5l0.9-0.5c-0.3-0.6-0.7-1.1-1.1-1.7
	L476,281.9z M479,287l-0.9,0.5c0.6,1.1,1.3,2.3,1.9,3.5l0.9-0.5l0.9-0.5c-0.6-1.2-1.2-2.4-1.9-3.5L479,287z M482.7,294l-0.9,0.4
	c0.6,1.2,1.1,2.4,1.6,3.6l0.9-0.4l0.9-0.4c-0.5-1.2-1.1-2.4-1.7-3.6L482.7,294z M485.9,301.2l-0.9,0.4c0.5,1.2,1,2.4,1.5,3.6
	l0.9-0.4l0.9-0.4c-0.5-1.2-1-2.4-1.5-3.7L485.9,301.2z M488.8,308.6l-0.9,0.3c0.5,1.3,0.9,2.5,1.3,3.7l0.9-0.3l0.9-0.3
	c-0.4-1.2-0.9-2.5-1.3-3.7L488.8,308.6z M491.4,316.1l-0.9,0.3c0.4,1.3,0.8,2.5,1.2,3.7l1-0.3l1-0.3c-0.4-1.2-0.8-2.5-1.2-3.8
	L491.4,316.1z M493.9,323.6l-1,0.3c0.4,1.4,0.8,2.6,1.2,3.8l1-0.3l1-0.3c-0.4-1.1-0.8-2.4-1.2-3.8L493.9,323.6z"/>
<path class="st5" d="M283.8,328.2c60.2,16.2,74,14.5,87.9,8.4c15.3,12.3,21.8,24.3,29.6,24.7c7.8,0.4,25.4,1.9,35.8-2.4
	c10.4-4.3,14.5-19.3,23.3-29c8.8-9.8,21.6-18.9,25.5-29"/>
<path class="st5" d="M340.6,220.2c-2.9,0.2-11.8,2.9-15.9,7.6c-5.2,5.9-7.2,15.6-13.6,15c-6.4-0.7-6.8-6.6-8.9-13.1
	c-2.1-6.5-4.4-24.8-20.6-24.4c-16.2,0.3-24.1,17.4-25,24.4c-0.9,7-18.8,7.4-21.4,15.5c-2.6,8.1-4.7,10.4-23.9-1.2
	c-19.2-11.6-30.6-0.3-34.7,3.4c-2.8,2.4-8.5,14.6-14.4,24.1 M110.1,292.4c4.9-1.2,8.2-3,10.3-4.3c4.6-2.8,24.6-0.8,32.9-6.2
	c2.7-1.8,5.8-5.8,8.7-10.5 M110.1,292.4c-5.8,1.5-13.9,2.2-24.6,0.3c-2.4-2.2-7.5-8.5-8.3-16.4 M110.1,292.4c-3-1.2-7.2-4.5,0-8.8
	c9-5.4,13.6-1,20.1-3c6.5-2,2.9-4.3,17.2-4.3c11.4,0,14.6-3.3,14.7-4.9 M110.1,292.4c2.8,1.8,9.5,5,17.9,6.7 M468,154.6
	c-2,11.1-1.4,36.2,16.7,48.2c18.1,12,15.9,37.6,12.5,48.9 M497.2,251.7c-2.3,4.8-11.8,14-31.7,12.7 M497.2,251.7
	c15,21.3,27.3,34.9,31.9,49.2 M527.4,295.1c3.7-7.6,10-25.5,9.5-35.1 M536.9,260c-0.7-12,31.3-22.8,33.9-48.8
	c2-20.8-8.9-34.4-15.1-39.6 M536.9,260c-3.1,1.5-9.3-5.2-9.5-44.4s-20.3-32.9-30.2-24.8 M169.6,324.1c2.7-3.9,20.6,0.5,43.3,0.5
	c28.4,0,16.8-41.2,36.8-44c19.9-2.8,17.2,11.8,37.8,10.4c20.6-1.3,17.2-24.2,36.2-24.5c15.2-0.3,23.5-14.4,25.8-21.4 M142.8,315.7
	c6.2,5.7,79.3,24.9,122.1,22.3 M128,299.2c2.7,0.6,5.6,1,8.6,1.2c2.1,0.1,5,0.5,8.7,1 M128,299.2c-1,8.1,8.1,17.5,14.8,16.5
	 M142.8,315.7c-0.2-2.3,0.1-8.5,2.5-14.3 M145.3,301.4c23.5,3.6,74.1,14.7,78.2,14.3c11.6,4.3,19.3,8.9,34.4,8.9l22.7,3"/>
<path class="st5" d="M431.5,214.9l29.5,41.8"/>
<path class="st5" d="M349.5,224c2,2.6,4.7,9.4,0,16.1c-5.9,8.3,9.2,2.7,8.9,12.6c-0.2,9.9-13.5,8.3-13.5,15.3c0,7,8.7,12.3,19.4,5.7
	s16.4,45,42.3,44.9c3.6-0.1,12.1-1.9,10.5-11.1c-1.2-7.4,4.5-8.1,7.5-7.5c2.3,2.4,9,6.4,17.8,2.9c5.6-1.5,16.1-6,12.9-12
	c-3.9-7.5-18-1.7-16.9-10.6c1.2-8.9,15.2-3,19.2-7.7c3.1-3.8,6.2-6.9,7.3-8.1"/>
<path class="st5" d="M424.7,300.1c2.1-4.4,5.5-14,2.9-16.9c-3.3-3.7-6.1-7.7-11.8-7c-5.6,0.7-3,11.4-9.8,8.2
	c-6.8-3.1,2.3-14.5,2.3-18c-0.1-3.5-6.3-4.6-0.9-10.9c5.4-6.3,11.8-9.7,8.5-14.3c-3.3-4.6-10.4-0.2-15.1-6.6
	c-3.8-5.2-4.1-9-3.8-10.2"/>
<path class="st5" d="M470.8,222.8c8-6,24.7-21,26.9-33.1c2.8-15.1,12.4-14.6,8.8-28.5c-2.8-11.1-11.6-29.5-15.6-37.3"/>
<path class="st5" d="M422.6,94.3c-1.1-2.4-4.8-7-11.1-5.7c-7.8,1.5-4.1,8.1-17.1,1.9c-12.9-6.1-16.7-8.2-20.5-16.6
	s-0.1-6.5-6.7-17.3c-6.7-10.9,1.3-12.5-4.5-23.1c-5.8-10.6-9.5-15.1-17.5-12.5c-7.9,2.5-8.7,10.7-8.7,19.1s-1.1,9-12.7,9.2
	c-11.6,0.2-11.1,10.1-11.1,18.8c-2.7,15,1.7,22.5-2.8,26c-4.5,3.5-12.1,3.8-19.6,3.4c-7.4-0.4-9.8,10.4-8.9,16.2
	c0.8,5.8-13.1,1.5-24.6,6.2c-11.5,4.6-11.9,0.7-20.6,6.7c-8.7,6,4,8.7-6.4,15.6c-10.4,6.8-15.3,2.4-16.6,13.5
	c-1.2,11.1,5,15.1-14.6,20.9c-19.6,5.8-25.1,20.2-33.8,37.5c-8.7,17.3-27.5,11.3-28.6,13.5c-1.1,2.3-23.9,18-25.5,25.5
	c-1.3,6-7.6,1.7-10.7-1.1 M100.1,251.8c-1.7-2.6-6-8.8-9.7-13.2c-4.6-5.6-3.1,0.5-13.7-0.6c-10.6-1.1-4-4.1-15-1.3
	c-10.9,2.8,4.5,5.6-3.2,6.8c-7.7,1.2-13.8-1.8-17.6,1.2c-3.8,3,3.1,2.8,9.1,9.4c5.9,6.6,13.1,3.9,16.2,12.7
	c3.1,8.8,10.5,10,11.6,9.1c1-1-2.4-21.8,5.5-18.5c7.8,3.3,13.5,4.6,14.8,0C99.1,253.9,99.9,252.2,100.1,251.8z"/>
<path class="st6" d="M308.6,95c-2.1,5.6-3.4,16.6,8.2,16.1c14.5-0.6,40.2,21,45.2,36.6c3.9,12.4,9.5,69.2,17.1,107.4
	c0.9,13.5,3.7,41.4,7.6,44.8c4.9,4.1,9.1,2.2,14,0c4.9-2.2,9.5-6.8,13.9-4.9c3.5,1.5,8.2,3.9,10.1,4.9"/>
<path class="st6" d="M420.9,92.4c0-9.5,3.2-28.1,15.7-25.7c15.6,2.9,36.7-8.3,35,10.9c-1.7,18.6-21.3,48.6,8.3,46.4
	c0.9-0.1,6.4-4.7,7.2-1.2c-1.2,6.6-6.3,4.8-8.2,15c-2.5,5.7-7.2,19.2-5.7,28 M473.2,165.7c1.9,10.9,5.1,18.9-8.3,32.8 M473.2,165.7
	c3-1,7.2-2.2,11.4-3.2 M502.5,176.8c0.7-2,1.5-7.3-0.7-12.9c-1.4-3.6-9.4-3-17.2-1.3 M484.7,162.6c-0.8,6.2,0.9,18.9,14.4,19.9"/>
<path class="st6" d="M400.9,299.8c-0.5,1.2-1,3.6,1.2,3.9c2.8,0.4,9.3-1.5,8.2,2.5c-1.1,4-8.2,2.4-8.2,5.4c0,2.3,1.8,5.5,2.6,6.8"/>
<path class="st6" d="M414.6,295.3c1.2-0.5,3.1-2.4,1.1-5.6c-2-3.2,3.6-9,6.7-11.5"/>
<rect x="289.2" y="189.6" class="st7" width="1.9" height="9.2"/>
<path class="st8" d="M290.2,184.5l5.5,9.6h-11.1L290.2,184.5z"/>
<path class="st8" d="M290.2,180.9l4.7,8.1h-9.4L290.2,180.9z"/>
<path class="st9" d="M292,184h-3.6l-0.5,0.9h4.7L292,184z"/>
<path class="st9" d="M292.8,189.1h-5.2l-0.5,0.8h6.2L292.8,189.1z"/>
<path class="st8" d="M290.3,177.6l3.7,6.5h-7.5L290.3,177.6z"/>
<rect x="300.8" y="198.8" class="st7" width="1.9" height="9.2"/>
<path class="st8" d="M301.8,193.8l5.5,9.6h-11.1L301.8,193.8z"/>
<path class="st8" d="M301.8,190.2l4.7,8.1h-9.4L301.8,190.2z"/>
<path class="st9" d="M303.6,193.3H300l-0.5,0.9h4.7L303.6,193.3z"/>
<path class="st9" d="M304.4,198.3h-5.2l-0.5,0.8h6.2L304.4,198.3z"/>
<path class="st8" d="M301.8,186.8l3.7,6.5h-7.5L301.8,186.8z"/>
<rect x="297.9" y="178.4" class="st7" width="1.7" height="7.8"/>
<path class="st8" d="M298.7,174.2l4.7,8.1H294L298.7,174.2z"/>
<path class="st8" d="M298.7,171.1l4,6.9h-8L298.7,171.1z"/>
<path class="st9" d="M300.2,173.8h-3.1l-0.5,0.8h4L300.2,173.8z"/>
<path class="st9" d="M300.9,178h-4.4l-0.4,0.7h5.3L300.9,178z"/>
<path class="st8" d="M298.8,168.3l3.2,5.5h-6.3L298.8,168.3z"/>
<path class="st10" d="M423.2,341.9l2.8-11.9l2.4,11.9H423.2z"/>
<path class="st10" d="M426.6,333.8l2.8-11.9l2.4,11.9H426.6z"/>
<path class="st10" d="M434.4,338.1l2.8-11.9l2.4,11.9H434.4z"/>
<path class="st10" d="M431.9,343.7l2.8-11.9l2.4,11.9H431.9z"/>
<path class="st10" d="M428.5,343.7l2.8-11.9l2.4,11.9H428.5z"/>
</svg>
